<?xml version="1.0" encoding="UTF-8" standalone="no"?>
<!-- Created with Inkscape (http://www.inkscape.org/) -->

<svg
   xmlns:dc="http://purl.org/dc/elements/1.1/"
   xmlns:cc="http://creativecommons.org/ns#"
   xmlns:rdf="http://www.w3.org/1999/02/22-rdf-syntax-ns#"
   xmlns:svg="http://www.w3.org/2000/svg"
   xmlns="http://www.w3.org/2000/svg"
   xmlns:inkscape="http://www.inkscape.org/namespaces/inkscape"
   version="1.1"
   width="177.08749"
   height="177.08749"
   id="svg2"
   xml:space="preserve"><metadata
     id="metadata8"><rdf:RDF><cc:Work
         rdf:about=""><dc:format>image/svg+xml</dc:format><dc:type
           rdf:resource="http://purl.org/dc/dcmitype/StillImage" /></cc:Work></rdf:RDF></metadata><defs
     id="defs6"><clipPath
       id="clipPath18"><path
         d="M 0,1416.67 0,0 l 1416.67,0 0,1416.67 -1416.67,0 z"
         inkscape:connector-curvature="0"
         id="path20" /></clipPath></defs><g
     transform="matrix(1.25,0,0,-1.25,0,177.0875)"
     id="g10"><g
       transform="scale(0.1,0.1)"
       id="g12"><g
         id="g14"><g
           clip-path="url(#clipPath18)"
           id="g16"><path
             d="m 1337.3,1416.67 -1257.9289,0 C 35.5352,1416.67 0,1381.13 0,1337.3 L 0,1112.2 C 146.84,1045 444.602,781.824 544.785,669.68 c -1.426,43.035 6.324,73.582 22.383,77.324 16.055,3.726 36.484,-20.274 54.199,-59.543 50.039,179.18 269.524,699.309 356.028,679.399 C 1169.07,1322.73 1197.15,788.945 1149.19,580.715 1126.15,480.613 966.582,491.238 865.012,509.25 965.613,470.508 1068.82,417.195 1079.27,380.148 1113.54,258.68 1007.58,225.031 1046.54,80.9102 1059.57,32.7188 810.078,30.2383 695.137,293.488 717.48,178.98 718.516,132.371 709.824,130.34 701.113,128.32 682.5,169.512 652.461,282.051 658.008,151.441 614.18,58.1992 564.031,0 L 1337.3,0 c 43.83,0 79.37,35.5391 79.37,79.3711 l 0,1257.9289 c 0,43.83 -35.54,79.37 -79.37,79.37 z M 269.395,191.879 c -6.954,37.883 62.171,131.25 135.378,210.402 C 321.57,341.32 183.02,261.359 118.184,341.039 81.4219,386.211 39.0859,455.652 0,535.188 L 0,79.3711 C 0,35.5391 35.5352,0 79.3711,0 L 409.789,0 C 367.113,82.6719 288.336,88.9609 269.395,191.879"
             inkscape:connector-curvature="0"
             id="path22"
             style="fill:#99d420;fill-opacity:1;fill-rule:nonzero;stroke:none" /></g></g></g></g></svg>