<?xml version="1.0" encoding="UTF-8" standalone="no"?>
<!-- Created with Inkscape (http://www.inkscape.org/) -->

<svg
   xmlns:dc="http://purl.org/dc/elements/1.1/"
   xmlns:cc="http://creativecommons.org/ns#"
   xmlns:rdf="http://www.w3.org/1999/02/22-rdf-syntax-ns#"
   xmlns:svg="http://www.w3.org/2000/svg"
   xmlns="http://www.w3.org/2000/svg"
   xmlns:inkscape="http://www.inkscape.org/namespaces/inkscape"
   version="1.1"
   width="276.36249"
   height="210.0125"
   id="svg2"
   xml:space="preserve"><metadata
     id="metadata8"><rdf:RDF><cc:Work
         rdf:about=""><dc:format>image/svg+xml</dc:format><dc:type
           rdf:resource="http://purl.org/dc/dcmitype/StillImage" /></cc:Work></rdf:RDF></metadata><defs
     id="defs6"><clipPath
       id="clipPath18"><path
         d="m 0,0 2210.86,0 0,1680 L 0,1680 0,0 z"
         inkscape:connector-curvature="0"
         id="path20" /></clipPath></defs><g
     transform="matrix(1.25,0,0,-1.25,0,210.0125)"
     id="g10"><g
       transform="scale(0.1,0.1)"
       id="g12"><g
         id="g14"><g
           clip-path="url(#clipPath18)"
           id="g16"><path
             d="m 1820.14,435.32 c -183.11,-79.531 -381.75,-67.218 -546.6,15.899 l 0.15,0.281 c -19.86,8.352 -82.53,37.301 -146.46,95.172 -41.81,37.848 -91.66,96.117 -142.078,146.617 L 1305,884.875 c 5.27,-5.477 10.98,-11.211 16.06,-16.555 76.17,-80.121 119.92,-96.082 119.92,-96.082 l -1.2,-2.426 c 72.18,-33.652 157.73,-37.753 236.53,-3.531 146,63.418 212.95,233.18 149.53,379.179 -63.41,146 -233.18,212.96 -379.18,149.54 -65.24,-28.33 -114.54,-77.97 -143.63,-137.16 l -324.264,155.79 c 64.534,134.82 175.624,248.03 324.154,312.54 328.84,142.83 711.2,-7.97 854.03,-336.81 142.83,-328.844 -7.96,-711.212 -336.81,-854.04"
             inkscape:connector-curvature="0"
             id="path22"
             style="fill:#60bdea;fill-opacity:1;fill-rule:evenodd;stroke:none" /><path
             d="m 915.461,812.211 c -4.149,3.484 -8.203,7.234 -12.438,10.473 -66.429,50.785 -118.953,84.55 -125.91,88.984 l -0.875,-1.723 c -73.793,34.52 -161.847,38.504 -241.836,3.762 C 388.398,850.293 321.449,680.523 384.867,534.52 c 63.41,-146 233.18,-212.95 379.18,-149.54 65.422,28.418 115.496,78.68 145.32,138.551 L 1233.03,366.371 C 1167.74,231.512 1056.15,118.281 907.941,53.9102 579.098,-88.918 196.73,61.8711 53.9023,390.711 -88.9258,719.559 61.8672,1101.93 390.711,1244.75 c 181.258,78.73 378.625,67.91 543.328,-12.43 l 0.203,0.41 c 0,0 70.098,-34.4 151.878,-97.02 44.14,-33.79 93.49,-87.45 141.01,-137.108 L 915.461,812.211"
             inkscape:connector-curvature="0"
             id="path24"
             style="fill:#f04035;fill-opacity:1;fill-rule:evenodd;stroke:none" /></g></g></g></g></svg>